# xmcd CD database file generated by libcdaudio 0.99.6
# 
# Track frame offsets:
#       150
#       17300
#       31007
#       51115
#       69587
#       87927
#       110072
#       124854
#       140960
#       156462
#       175120
# 
# Disc length: 2632 seconds
# 
# Revision: 5
# Processed by: cddbd v1.4PL0 Copyright (c) Steve Scherf et al.
# Submitted via: libcdaudio 0.99.6
# 
DISCID=930a460b
DTITLE=Sons Of The Desert - Whatever Comes First
DYEAR=1997
DGENRE=Country
TTITLE0=Hand Of Fate
TTITLE1=Whatever Comes First
TTITLE2=Leaving October
TTITLE3=Bring On The Angel
TTITLE4=You Can Come Cryin' To Me
TTITLE5=Colorado
TTITLE6=When It's Right
TTITLE7=Promises
TTITLE8=Drive Away
TTITLE9=Devil On Both Shoulders
TTITLE10=Burned In My Mind
EXTD=
EXTT0=
EXTT1=
EXTT2=
EXTT3=
EXTT4=
EXTT5=
EXTT6=
EXTT7=
EXTT8=
EXTT9=
EXTT10=
PLAYORDER=
